<?xml version="1.0" encoding="UTF-8"?><svg id="objects" xmlns="http://www.w3.org/2000/svg" viewBox="0 0 426.62 426.62"><defs><style>.cls-1{fill:#2c72be;}</style></defs><path class="cls-1" d="M391.79,162.29h-8.5v-17c0-46.86-38.13-84.99-84.99-84.99h-67.99V26.31c0-9.38-7.6-17-17-17s-17,7.62-17,17v34h-67.99c-46.86,0-84.99,38.13-84.99,84.99v17h-8.5c-14.06,0-25.5,11.44-25.5,25.5v50.99c0,14.06,11.44,25.5,25.5,25.5h8.5v17c0,46.86,38.13,84.99,84.99,84.99h130.83l67.36,44.91c6.12,4.08,13.17,6.14,20.24,6.14,5.92,0,11.83-1.43,17.25-4.33,11.88-6.37,19.28-18.7,19.28-32.19v-116.52h8.5c14.06,0,25.5-11.44,25.5-25.5v-50.99c0-14.06-11.44-25.5-25.5-25.5v.02ZM153.82,145.29c14.07,0,25.5,11.42,25.5,25.5s-11.42,25.5-25.5,25.5-25.5-11.42-25.5-25.5,11.42-25.5,25.5-25.5ZM290.33,274.02c-17.63,11.07-45.32,24.26-77.02,24.26s-59.39-13.19-77.02-24.26c-7.96-4.98-10.35-15.49-5.35-23.42,5-7.94,15.49-10.35,23.42-5.37,13.85,8.7,35.34,19.05,58.97,19.05s45.1-10.35,58.97-19.05c7.92-5,18.44-2.58,23.42,5.37,5,7.96,2.58,18.44-5.35,23.42h-.03ZM272.8,196.29c-14.07,0-25.5-11.42-25.5-25.5s11.42-25.5,25.5-25.5,25.5,11.42,25.5,25.5-11.42,25.5-25.5,25.5Z"/></svg>