<?xml version="1.0" encoding="UTF-8"?><svg id="objects" xmlns="http://www.w3.org/2000/svg" viewBox="0 0 426.62 426.62"><defs><style>.cls-1{fill:#fff;}</style></defs><path class="cls-1" d="M213.31,14.63h0C103.58,14.63,14.63,103.58,14.63,213.31h0c0,109.73,88.95,198.68,198.68,198.68h0c109.73,0,198.68-88.95,198.68-198.68h0c0-109.73-88.95-198.68-198.68-198.68ZM317.52,267.21c0,27.78-22.53,50.31-50.31,50.31h-107.81c-27.78,0-50.31-22.53-50.31-50.31v-107.81c0-27.78,22.53-50.31,50.31-50.31h107.81c27.78,0,50.31,22.53,50.31,50.31v107.81Z"/><path class="cls-1" d="M263.62,127.06h-100.62c-19.84,0-35.94,16.1-35.94,35.94v100.62c0,19.84,16.1,35.94,35.94,35.94h100.62c19.84,0,35.94-16.1,35.94-35.94v-100.62c0-19.84-16.1-35.94-35.94-35.94ZM213.41,267.21c-29.75,0-53.9-24.15-53.9-53.9s24.15-53.9,53.9-53.9,53.9,24.15,53.9,53.9-24.15,53.9-53.9,53.9ZM270.91,166.59c-5.94,0-10.78-4.84-10.78-10.78s4.84-10.78,10.78-10.78,10.78,4.84,10.78,10.78-4.84,10.78-10.78,10.78Z"/><path class="cls-1" d="M213.41,177.37c-19.8,0-35.94,16.14-35.94,35.94s16.14,35.94,35.94,35.94,35.94-16.14,35.94-35.94-16.14-35.94-35.94-35.94Z"/></svg>