<?xml version="1.0" encoding="UTF-8"?><svg id="objects" xmlns="http://www.w3.org/2000/svg" viewBox="0 0 426.62 426.62"><defs><style>.cls-1{fill:#fff;}</style></defs><path class="cls-1" d="M213.31,14.63h0C103.58,14.63,14.63,103.58,14.63,213.31h0c0,109.73,88.95,198.68,198.68,198.68h0c109.73,0,198.68-88.95,198.68-198.68h0c0-109.73-88.95-198.68-198.68-198.68ZM164.26,303.29c0,1.05-.85,1.91-1.91,1.91h-38.84c-1.05,0-1.91-.85-1.91-1.91v-124.13c0-1.05.85-1.91,1.91-1.91h38.84c1.05,0,1.91.85,1.91,1.91v124.13ZM142.94,160.19c-14.13,0-25.59-11.46-25.59-25.59s11.46-25.59,25.59-25.59,25.59,11.46,25.59,25.59-11.46,25.59-25.59,25.59ZM309.27,296.67c0,4.69-3.84,8.53-8.53,8.53h-25.59c-4.69,0-8.53-3.84-8.53-8.53v-59.71c0-11.77-9.55-21.32-21.32-21.32s-21.32,9.55-21.32,21.32v59.71c0,4.69-3.84,8.53-8.53,8.53h-25.59c-4.69,0-8.53-3.84-8.53-8.53v-110.89c0-4.69,3.84-8.53,8.53-8.53h25.59c4.69,0,8.53,3.84,8.53,8.53v5.46c8.53-11.05,22.65-18.25,38.38-18.25,23.54,0,46.91,17.06,46.91,51.18v72.5Z"/></svg>