<?xml version="1.0" encoding="UTF-8"?><svg id="objects" xmlns="http://www.w3.org/2000/svg" viewBox="0 0 426.62 426.62"><defs><style>.cls-1{fill:#fff;}</style></defs><polygon class="cls-1" points="139.98 131.2 257.54 295.42 286.64 295.42 169.08 131.2 139.98 131.2"/><path class="cls-1" d="M213.31,14.63h0C103.58,14.63,14.63,103.58,14.63,213.31h0c0,109.73,88.95,198.68,198.68,198.68h0c109.73,0,198.68-88.95,198.68-198.68h0c0-109.73-88.95-198.68-198.68-198.68ZM246.18,317.52l-51.47-71.9-67.22,71.9h-30.52l84.5-90.39-84.5-118.04h83.48l48.31,67.48,63.08-67.48h30.52l-80.37,85.96,87.67,122.46h-83.48Z"/></svg>