<?xml version="1.0" encoding="UTF-8"?><svg id="objects" xmlns="http://www.w3.org/2000/svg" viewBox="0 0 426.62 426.62"><defs><style>.cls-1{fill:#fff;}</style></defs><path class="cls-1" d="M213.31,14.63h0C103.58,14.63,14.63,103.58,14.63,213.31h0c0,109.73,88.95,198.68,198.68,198.68h0c109.73,0,198.68-88.95,198.68-198.68h0c0-109.73-88.95-198.68-198.68-198.68ZM329.56,266.86c0,16.92-13.72,30.63-30.63,30.63H127.69c-16.92,0-30.64-13.71-30.64-30.63v-107.1c0-16.91,13.72-30.63,30.64-30.63h171.24c16.91,0,30.63,13.72,30.63,30.63v107.1Z"/><path class="cls-1" d="M240.82,205.93l-47.62-23.8c-5.5-2.74-11.96,1.25-11.96,7.39v47.6c0,6.14,6.47,10.13,11.96,7.38l47.62-23.8c6.08-3.05,6.08-11.73,0-14.77Z"/></svg>